<svg id="Capa_1"
     data-name="Capa 1"
     xmlns="http://www.w3.org/2000/svg"
     viewBox="0 0 679.47 602.48">
    <defs>
        <style>.cls-1{fill:#fff;}</style>
    </defs>
    <polygon class="cls-1"
             points="165.99 326.24 150.99 326.24 150.99 112.49 364.74 112.49 364.74 127.49 165.99 127.49 165.99 326.24" />
    <polygon class="cls-1"
             points="528.49 489.99 314.74 489.99 314.74 474.99 513.49 474.99 513.49 276.24 528.49 276.24 528.49 489.99" />
    <path class="cls-1"
          d="M800.12,253.12V514.88H538.38V253.12Zm15-15H523.38V529.88H815.12V238.12Z"
          transform="translate(-329.51 -82.76)" />
    <path class="cls-1"
          d="M764.19,289.06V478.94H574.31V289.06Zm15-15H559.31V493.94H779.19V274.06Z"
          transform="translate(-329.51 -82.76)" />
    <polygon class="cls-1"
             points="284.83 368.71 284.83 379.36 261.61 379.36 261.61 355.49 272.26 355.49 272.26 368.71 284.83 368.71" />
    <polygon class="cls-1"
             points="417.87 355.49 417.87 379.36 393.33 379.36 393.33 368.71 407.2 368.71 407.2 355.49 417.87 355.49" />
    <polygon class="cls-1"
             points="417.87 223.12 417.87 246.99 407.2 246.99 407.2 233.77 393.33 233.77 393.33 223.12 417.87 223.12" />
    <polygon class="cls-1"
             points="284.83 223.12 284.83 233.77 272.26 233.77 272.26 246.99 261.61 246.99 261.61 223.12 284.83 223.12" />
    <polygon class="cls-1"
             points="485.61 285.49 470.61 285.49 470.61 71.74 581.23 71.74 581.23 86.74 485.61 86.74 485.61 285.49" />
    <path class="cls-1"
          d="M936.11,149.32v25.36H910.75V149.32Zm15-15H895.75v55.36h55.36V134.32Z"
          transform="translate(-329.51 -82.76)" />
    <polygon class="cls-1"
             points="208.84 529.74 98.21 529.74 98.21 514.74 193.84 514.74 193.84 315.99 208.84 315.99 208.84 529.74" />
    <path class="cls-1"
          d="M427.2,592.32v25.36H401.84V592.32Zm15-15H386.84v55.36H442.2V577.32Z"
          transform="translate(-329.51 -82.76)" />
    <polygon class="cls-1"
             points="165.99 236.96 150.99 236.96 150.99 38.21 55.36 38.21 55.36 23.21 165.99 23.21 165.99 236.96" />
    <path class="cls-1"
          d="M369.88,100.78v25.37H344.51V100.78Zm15-15H329.51v55.37h55.37V85.78Z"
          transform="translate(-329.51 -82.76)" />
    <polygon class="cls-1"
             points="624.11 579.28 513.49 579.28 513.49 365.53 528.49 365.53 528.49 564.28 624.11 564.28 624.11 579.28" />
    <path class="cls-1"
          d="M994,641.85v25.37H968.62V641.85Zm15-15H953.62v55.37H1009V626.85Z"
          transform="translate(-329.51 -82.76)" />
    <polygon class="cls-1"
             points="649.29 386.41 634.29 386.41 634.29 290.78 435.54 290.78 435.54 275.78 649.29 275.78 649.29 386.41" />
    <path class="cls-1"
          d="M984,484.17v25.36H958.62V484.17Zm15-15H943.62v55.36H999V469.17Z"
          transform="translate(-329.51 -82.76)" />
    <polygon class="cls-1"
             points="244.1 333.73 30.35 333.73 30.35 223.11 45.35 223.11 45.35 318.73 244.1 318.73 244.1 333.73" />
    <path class="cls-1"
          d="M380.05,265.5v25.36H354.69V265.5Zm15-15H339.69v55.36h55.36V250.5Z"
          transform="translate(-329.51 -82.76)" />
    <line class="cls-1"
          x1="426.71"
          y1="301.24"
          x2="251.46"
          y2="301.24" />
    <rect class="cls-1"
          x="251.46"
          y="295.74"
          width="175.24"
          height="11" />
    <polygon class="cls-1"
             points="566.64 165.99 352.89 165.99 352.89 55.36 367.89 55.36 367.89 150.99 566.64 150.99 566.64 165.99" />
    <path class="cls-1"
          d="M702.58,97.76v25.36H677.22V97.76Zm15-15H662.22v55.36h55.36V82.76Z"
          transform="translate(-329.51 -82.76)" />
    <polygon class="cls-1"
             points="326.58 547.12 311.58 547.12 311.58 451.5 112.83 451.5 112.83 436.5 326.58 436.5 326.58 547.12" />
    <path class="cls-1"
          d="M661.28,644.88v25.36H635.92V644.88Zm15-15H620.92v55.36h55.36V629.88Z"
          transform="translate(-329.51 -82.76)" />
</svg>